<svg width="20" height="20" viewBox="0 0 20 20" fill="none" xmlns="http://www.w3.org/2000/svg">
<path d="M6.68058 13.3181V13.0896C6.68058 12.058 6.68301 11.026 6.67775 9.99446C6.67694 9.85589 6.71742 9.75743 6.8162 9.65857C9.76386 6.71414 12.7091 3.76768 15.6527 0.818796C16.0591 0.411592 16.5271 0.133235 17.1012 0.0351819C18.3392 -0.175916 19.5687 0.582172 19.897 1.79325C20.1404 2.69112 19.9521 3.50108 19.3189 4.19596C19.2554 4.26565 19.1878 4.33169 19.121 4.39855C16.1944 7.32596 13.2678 10.253 10.3428 13.1824C10.2517 13.2736 10.1626 13.3222 10.0278 13.3214C8.98292 13.3157 7.93842 13.3181 6.89353 13.3181C6.83361 13.3181 6.7741 13.3181 6.67977 13.3181H6.68058ZM14.6499 4.16597C14.6025 4.21014 14.5527 4.2543 14.5054 4.3013C14.1479 4.65827 13.7904 5.01604 13.4333 5.3734C11.7804 7.02694 10.1282 8.68168 8.47241 10.3324C8.36958 10.4349 8.31614 10.5354 8.32262 10.6845C8.33436 10.9535 8.32505 11.2234 8.32667 11.4932C8.32667 11.5508 8.33719 11.6079 8.34367 11.676C8.72098 11.676 9.07765 11.6739 9.43431 11.6772C9.52864 11.678 9.58006 11.6176 9.63633 11.5613C11.6707 9.52648 13.7046 7.49127 15.7381 5.45606C15.7749 5.41919 15.8057 5.37624 15.8312 5.34545C15.4369 4.95161 15.0515 4.5671 14.6499 4.16638V4.16597ZM15.8454 2.96057C16.0462 3.21583 16.9081 4.06103 17.0522 4.14369C17.1389 4.05779 17.2299 3.96906 17.3194 3.8787C17.6032 3.59184 17.8987 3.31469 18.1672 3.01365C18.4425 2.70409 18.4105 2.18506 18.1263 1.90873C17.7988 1.58985 17.3194 1.5469 16.9939 1.84187C16.6008 2.19843 16.2324 2.58173 15.8462 2.96057H15.8454Z" fill="#1D2345"/>
<path d="M4.96936 11.6735V13.3153C4.75196 13.3153 4.54508 13.3153 4.33821 13.3153C4.04713 13.3149 3.75807 13.3367 3.47913 13.4238C2.49658 13.731 1.89458 14.3934 1.69662 15.4003C1.43873 16.7127 2.32493 18.1174 3.8443 18.3281C4.48031 18.4165 5.08109 18.273 5.6171 17.9157C5.91345 17.7179 6.19562 17.4967 6.47132 17.2706C6.89317 16.9246 7.2891 16.5466 7.75953 16.2621C8.22024 15.9838 8.71536 15.8347 9.25704 15.8517C9.94122 15.8731 10.5088 16.162 10.9772 16.6397C11.3068 16.976 11.5995 17.3484 11.9152 17.6985C12.0545 17.8533 12.1998 18.0064 12.3606 18.1377C12.6937 18.4096 13.0366 18.4213 13.3791 18.1673C13.5508 18.04 13.705 17.8853 13.8516 17.7285C14.1929 17.3646 14.5135 16.9813 14.8633 16.6268C15.2094 16.2763 15.6268 16.0259 16.1122 15.9153C16.9551 15.7232 17.6911 15.9388 18.2976 16.5498C18.5287 16.7828 18.7222 17.0542 18.923 17.316C19.1036 17.551 19.2668 17.7994 19.4457 18.0352C19.5756 18.2066 19.7469 18.3225 19.9801 18.352V19.9683C19.7882 20.0137 19.6117 19.9691 19.4376 19.9249C18.8765 19.7835 18.4478 19.4436 18.1032 18.9955C17.8733 18.6964 17.6713 18.3767 17.4502 18.0708C17.3559 17.9404 17.2543 17.8123 17.1397 17.6997C16.9138 17.4777 16.6219 17.4307 16.341 17.5814C16.1948 17.66 16.056 17.7645 15.9386 17.8816C15.7292 18.0911 15.5426 18.3233 15.3394 18.5388C15.0762 18.818 14.8216 19.1085 14.5346 19.3621C14.0062 19.8289 13.382 20.0465 12.6715 19.9845C12.1286 19.9371 11.6569 19.7163 11.2529 19.3605C11.0363 19.1697 10.84 18.9541 10.6456 18.7394C10.4513 18.5246 10.2793 18.2892 10.0817 18.0777C9.9311 17.9165 9.76471 17.7657 9.5886 17.6332C9.36716 17.4663 9.10603 17.4456 8.85989 17.5607C8.64249 17.6624 8.43116 17.7892 8.2421 17.9371C7.85507 18.2406 7.48788 18.5692 7.10692 18.8804C6.67131 19.2365 6.19846 19.5347 5.66771 19.728C3.68479 20.45 1.52294 19.681 0.509214 17.818C-0.802474 15.408 0.533909 12.438 3.21234 11.7837C3.58196 11.6933 3.95847 11.6779 4.33578 11.6731C4.54306 11.6706 4.75074 11.6727 4.96895 11.6727L4.96936 11.6735Z" fill="#1D2345"/>
</svg>
