<svg width="24" height="24" viewBox="0 0 24 24" fill="none" xmlns="http://www.w3.org/2000/svg">
<path d="M19.6473 7.66241C19.0193 8.29039 18.7053 8.60438 18.3759 8.66515C18.0465 8.72592 17.8303 8.50973 17.3979 8.07735L15.9227 6.60217C15.4903 6.16979 15.2742 5.9536 15.3349 5.62418C15.3957 5.29477 15.7097 4.98078 16.3377 4.3528L16.6776 4.01282C17.3056 3.38484 17.6196 3.07085 17.949 3.01008C18.2784 2.94931 18.4946 3.1655 18.927 3.59788L20.4022 5.07307C20.8346 5.50545 21.0508 5.72164 20.99 6.05105C20.9292 6.38046 20.6152 6.69445 19.9872 7.32243L19.6473 7.66241Z" fill="#2670E0"/>
<path d="M4.43115 20.866C3.68136 21.0044 3.30646 21.0735 3.1165 20.8836C2.92654 20.6936 2.9957 20.3187 3.13401 19.5689L3.46769 17.76C3.52766 17.435 3.55764 17.2724 3.64514 17.1151C3.73263 16.9578 3.86876 16.8217 4.14102 16.5494L12.4716 8.21882C13.0996 7.59084 13.4136 7.27685 13.743 7.21608C14.0724 7.15531 14.2886 7.3715 14.721 7.80388L16.1962 9.27906C16.6286 9.71144 16.8447 9.92763 16.784 10.257C16.7232 10.5865 16.4092 10.9004 15.7812 11.5284L7.45063 19.859C7.17837 20.1313 7.04224 20.2674 6.88493 20.3549C6.72761 20.4424 6.56508 20.4724 6.24001 20.5324L4.43115 20.866Z" fill="#2670E0"/>
</svg>
