<svg width="30" height="30" viewBox="0 0 30 30" fill="none" xmlns="http://www.w3.org/2000/svg">
<path fill-rule="evenodd" clip-rule="evenodd" d="M8.10627 22.0856C8.33843 22.3178 8.61407 22.502 8.91745 22.6277C9.22083 22.7534 9.54601 22.8181 9.8744 22.8181C10.2028 22.8181 10.528 22.7534 10.8313 22.6277C11.1347 22.502 11.4104 22.3178 11.6425 22.0856L8.10627 18.5481C7.87383 18.7802 7.68943 19.056 7.56362 19.3594C7.43781 19.6629 7.37305 19.9883 7.37305 20.3168C7.37305 20.6453 7.43781 20.9707 7.56362 21.2742C7.68943 21.5776 7.87383 21.8534 8.10627 22.0856ZM14.2275 6.8468L13.3213 7.75305C12.3438 8.73055 10.5588 10.0193 9.31377 10.6418L5.54252 12.5281C4.92377 12.8381 4.81252 13.4956 5.30877 13.9918L16.0038 24.6868C16.5013 25.1818 17.1563 25.0781 17.4675 24.4518L19.355 20.6818C19.9725 19.4468 21.2625 17.6568 22.2438 16.6743L23.15 15.7668C24.1791 14.7378 24.8208 13.3848 24.9666 11.9369C25.1124 10.489 24.7533 9.03525 23.95 7.8218C24.0844 7.71409 24.1954 7.58002 24.2761 7.42782C24.3567 7.27563 24.4054 7.10854 24.4191 6.93683C24.4328 6.76512 24.4112 6.59243 24.3556 6.42938C24.3001 6.26634 24.2117 6.11638 24.0961 5.98875C23.9804 5.86112 23.8398 5.7585 23.683 5.68723C23.5262 5.61595 23.3565 5.57751 23.1842 5.57429C23.012 5.57106 22.841 5.60311 22.6816 5.66846C22.5222 5.73382 22.3779 5.83109 22.2575 5.9543C22.2288 5.98555 22.2 6.01555 22.175 6.04805C21.1419 5.363 19.9297 4.99777 18.69 4.99805C17.8612 4.99706 17.0403 5.15976 16.2745 5.4768C15.5087 5.79384 14.8131 6.25899 14.2275 6.84555V6.8468Z" fill="#1D2345"/>
</svg>
