<svg width="15" height="13" viewBox="0 0 15 13" fill="none" xmlns="http://www.w3.org/2000/svg">
<g clip-path="url(#clip0_281_83243)">
<path d="M14.5 11.6788C14.5 12.0089 14.3806 12.2606 14.1417 12.4341C13.9029 12.6076 13.6098 12.6943 13.2624 12.6943H1.23765C0.890237 12.6943 0.59711 12.6055 0.358266 12.4278C0.119422 12.25 0 12.0004 0 11.6788C0 11.4249 0.0781671 11.1668 0.234501 10.9044L6.24034 0.698189C6.52695 0.23273 6.86568 0 7.25651 0C7.64735 0 7.97739 0.23273 8.24663 0.698189L14.2655 10.9171C14.4218 11.188 14.5 11.4418 14.5 11.6788ZM8.15544 5.19199V3.33861H6.34456V5.19199C6.34456 5.31047 6.35325 5.4226 6.37062 5.52839C6.38799 5.63417 6.41187 5.75266 6.44227 5.88383C6.47267 6.01501 6.49656 6.12714 6.51393 6.22023L6.85265 8.27672H7.62129L7.97305 6.22023C7.99042 6.1356 8.01647 6.02558 8.05121 5.89018C8.08595 5.75477 8.11201 5.63417 8.12938 5.52839C8.14675 5.4226 8.15544 5.31047 8.15544 5.19199ZM8.15544 10.1047C8.15544 9.85928 8.06641 9.65194 7.88836 9.48268C7.71032 9.31342 7.49536 9.22879 7.24349 9.22879C7.0003 9.22879 6.78968 9.31342 6.61164 9.48268C6.43359 9.65194 6.34456 9.85928 6.34456 10.1047C6.34456 10.3501 6.43359 10.5596 6.61164 10.7331C6.78968 10.9066 7.0003 10.9933 7.24349 10.9933C7.49536 10.9933 7.71032 10.9066 7.88836 10.7331C8.06641 10.5596 8.15544 10.3501 8.15544 10.1047Z" fill="#FFC93E"/>
</g>
<defs>
<clipPath id="clip0_281_83243">
<rect width="14.5" height="12.6943" fill="white"/>
</clipPath>
</defs>
</svg>
