<svg width="21" height="21" viewBox="0 0 21 21" fill="none" xmlns="http://www.w3.org/2000/svg">
<path d="M18.3103 9.63067H21V11.3479H18.3136C17.7118 13.0435 16.5974 14.0332 14.8062 13.9992C13.0908 13.9668 12.0307 12.9813 11.4644 11.3661H0V9.64063C1.26613 9.63399 2.53639 9.63897 3.80664 9.63814C5.08267 9.63814 6.35952 9.63814 7.63554 9.63814C8.91156 9.63814 10.1851 9.63814 11.4603 9.63814C12.0645 7.94252 13.1963 6.95202 15.0024 7.00179C16.6947 7.04825 17.7415 8.03791 18.3103 9.63067Z" fill="#1D2345"/>
<path d="M2.68897 4.37261H0V2.66851C0.163168 2.65942 0.309854 2.64537 0.455716 2.64454C1.08696 2.64206 1.7182 2.64537 2.34945 2.64206C2.68567 2.64041 2.68567 2.63628 2.81423 2.30984C3.26253 1.17267 4.06024 0.418135 5.24938 0.110703C6.92803 -0.323174 8.66189 0.551191 9.33269 2.15777C9.36483 2.23381 9.40274 2.30901 9.41922 2.38917C9.46042 2.58917 9.58321 2.65859 9.77522 2.64454C9.88482 2.6371 9.99443 2.64454 10.1049 2.64454C13.5495 2.64454 16.9942 2.64454 20.4388 2.64454H21V4.36765C20.2386 4.38914 19.4763 4.37509 18.7148 4.37757C17.946 4.38005 17.1779 4.37757 16.4091 4.37757H9.52305C8.94125 6.02134 7.82957 7.01471 6.07099 6.99984C4.35196 6.98496 3.25264 6.01308 2.68897 4.37344V4.37261Z" fill="#1D2345"/>
<path d="M20.9992 16.621V18.3307C20.8083 18.3423 20.6356 18.3613 20.4629 18.3613C17.0385 18.3629 13.6142 18.3629 10.1898 18.3629C10.0665 18.3629 9.94226 18.372 9.82052 18.3613C9.59678 18.3423 9.49231 18.4282 9.40924 18.6528C8.96752 19.8447 8.13097 20.617 6.88807 20.9085C5.20428 21.3041 3.49335 20.3849 2.86491 18.7643C2.71026 18.3654 2.71026 18.3646 2.28582 18.3638C1.69686 18.3621 1.10791 18.3638 0.518951 18.3638C0.370067 18.3638 0.22036 18.3638 0.0155412 18.3638C-0.00749058 17.7749 -0.00173262 17.2223 0.012251 16.6276H2.70615C3.29593 14.9608 4.41791 14.0201 6.17409 14.0003C7.68843 13.9829 8.74131 14.8295 9.54167 16.6227H21L20.9992 16.621Z" fill="#1D2345"/>
</svg>
