<svg width="21" height="21" viewBox="0 0 21 21" fill="none" xmlns="http://www.w3.org/2000/svg">
<path d="M7.85762 10.4851C4.93063 10.4682 2.61283 8.12043 2.62677 5.18685C2.64072 2.32897 5.02898 -0.0320139 7.90019 0.00032838C10.9541 0.0341407 13.1369 2.53552 13.1075 5.28608C13.0767 8.17703 10.7428 10.5013 7.85688 10.4851H7.85762ZM11.3776 5.22801C11.3674 3.2566 9.79451 1.71814 7.80404 1.73211C5.89798 1.7446 4.34054 3.34922 4.35669 5.28461C4.3721 7.20603 5.96257 8.77904 7.8789 8.76728C9.82827 8.75552 11.3879 7.17737 11.3776 5.22801Z" fill="#1D2345"/>
<path d="M15.7315 19.8554C15.7315 19.9656 15.7374 20.0759 15.7308 20.1854C15.7029 20.6419 15.3822 20.9712 14.944 20.9991C14.4853 21.0285 14.141 20.7705 14.0442 20.3162C14.0185 20.1979 14.0089 20.0744 14.006 19.9531C13.9157 16.9063 11.5928 14.3991 8.57038 14.044C5.31165 13.6618 2.21293 15.975 1.78283 19.357C1.75054 19.6113 1.73733 19.8679 1.72192 20.1236C1.68962 20.6646 1.34467 21.0109 0.84338 20.9998C0.346497 20.9888 -0.00579927 20.6264 7.23093e-05 20.0869C0.00961363 19.1387 0.168881 18.2118 0.528516 17.3319C1.61916 14.6674 3.57513 12.9812 6.39203 12.4313C9.06286 11.9102 11.4276 12.6555 13.3887 14.5571C14.8765 16 15.62 17.7935 15.733 19.8554H15.7315Z" fill="#1D2345"/>
<path d="M18.3692 11.3641C18.3692 11.8492 18.3692 12.2748 18.3692 12.7011C18.3692 12.8481 18.3744 12.9952 18.3663 13.1414C18.3399 13.6405 17.9714 13.9963 17.4922 13.9904C17.0349 13.9845 16.6643 13.631 16.6459 13.151C16.6291 12.7114 16.6415 12.2711 16.6408 11.8308C16.6408 11.6978 16.6408 11.5647 16.6408 11.3883C16.4859 11.3795 16.3568 11.367 16.2283 11.3648C15.752 11.3589 15.2742 11.378 14.8001 11.3479C14.2129 11.3104 13.8591 10.7084 14.0918 10.1696C14.2357 9.83664 14.5006 9.65802 14.8668 9.65287C15.3065 9.64699 15.7461 9.64993 16.1858 9.6492C16.3179 9.6492 16.4492 9.6492 16.6085 9.6492C16.6217 9.50733 16.6386 9.40222 16.6393 9.29785C16.6423 8.83329 16.6313 8.36874 16.6445 7.90419C16.6584 7.38818 17.0092 7.03242 17.4863 7.0236C17.9861 7.01478 18.3516 7.36981 18.3656 7.90051C18.3781 8.36433 18.3678 8.82962 18.37 9.29417C18.37 9.39046 18.3803 9.48749 18.3883 9.62347C18.5263 9.63229 18.6562 9.64626 18.7854 9.64773C19.2617 9.65288 19.7381 9.64258 20.2144 9.66023C20.566 9.67346 20.8038 9.88001 20.9344 10.1983C21.0687 10.5254 20.9887 10.8253 20.7656 11.084C20.5968 11.2795 20.3693 11.3597 20.1116 11.3597C19.6845 11.3597 19.2566 11.3619 18.8294 11.3626C18.6973 11.3626 18.5652 11.3626 18.37 11.3626L18.3692 11.3641Z" fill="#1D2345"/>
</svg>
