<svg width="23" height="23" viewBox="0 0 23 23" fill="none" xmlns="http://www.w3.org/2000/svg">
<path d="M20.3677 5.30481V1.8595C20.3677 1.35075 19.9556 0.932164 19.4404 0.932164C18.9253 0.932164 18.5132 1.34431 18.5132 1.8595V4.04904L13.6965 0.796928C12.1253 -0.265643 10.0905 -0.265643 8.51927 0.796928L2.04128 5.16957C0.766284 6.03251 0 7.46215 0 9.0077V17.592C0 20.1422 2.07347 22.2222 4.6299 22.2222H7.40526C7.91397 22.2222 8.33253 21.8101 8.33253 21.2949V13.8891C8.33253 13.3803 8.74465 12.9618 9.2598 12.9618H12.9624C13.4711 12.9618 13.8897 13.3803 13.8897 13.8891V21.2949C13.8897 21.8036 14.3018 22.2222 14.817 22.2222H17.5923C20.1423 22.2222 22.2222 20.1486 22.2222 17.592V9.0077C22.2222 7.54586 21.5332 6.17418 20.3741 5.30481H20.3677ZM20.3677 17.592C20.3677 19.1247 19.1249 20.3676 17.5923 20.3676H15.7442V13.8891C15.7442 12.3564 14.5014 11.1135 12.9689 11.1135H9.26624C7.73367 11.1135 6.49087 12.3564 6.49087 13.8891V20.3676H4.64278C3.11021 20.3676 1.86741 19.1247 1.86741 17.592V9.0077C1.86741 8.08037 2.32461 7.22387 3.09089 6.70869L9.56889 2.33605C10.5155 1.6985 11.7325 1.6985 12.6727 2.33605L19.1507 6.70869C19.9169 7.22387 20.3741 8.08681 20.3741 9.0077V17.592H20.3677Z" fill="#1D2345"/>
</svg>
