<svg width="21" height="22" viewBox="0 0 21 22" fill="none" xmlns="http://www.w3.org/2000/svg">
<path d="M7.86036 17.1157C7.86941 16.9165 7.88176 16.7716 7.88259 16.6267C7.88423 15.1876 7.88259 13.7493 7.88423 12.3102C7.88423 11.9133 7.85542 11.5099 7.91058 11.1197C7.96245 10.7484 8.10652 10.3894 8.22096 9.98846C6.50028 9.06144 5.4267 7.64208 5.26945 5.63242C5.14678 4.05828 5.66957 2.68915 6.77032 1.55959C8.86148 -0.586735 12.3975 -0.461595 14.4031 1.74236C16.4333 3.97266 16.3073 8.23073 12.7104 10.0519C13.1797 10.8134 13.127 11.6672 13.1245 12.5143C13.122 13.2545 13.1245 13.9946 13.1245 14.7339C13.1245 14.8689 13.1245 15.004 13.1245 15.1587C13.8366 15.3991 14.5208 15.6305 15.205 15.861C15.5549 15.9787 15.908 16.0882 16.2547 16.215C17.8485 16.7996 18.8349 17.9168 19.1848 19.5823C19.2267 19.7815 19.2424 19.9907 19.2374 20.194C19.2276 20.6196 18.9221 20.9523 18.5105 21.0124C18.1334 21.0675 17.7382 20.8321 17.5999 20.4599C17.562 20.3587 17.539 20.2492 17.5258 20.1413C17.3768 18.9615 16.7305 18.1918 15.6092 17.813C14.7143 17.5109 13.8185 17.2112 12.9236 16.9099C12.6379 16.8136 12.3547 16.7123 12.0682 16.6193C11.622 16.4735 11.3972 16.1632 11.3857 15.7013C11.3766 15.3588 11.3799 15.0163 11.3799 14.6738C11.3799 13.6595 11.3849 12.6461 11.375 11.6318C11.3733 11.4309 11.3487 11.2168 11.2754 11.0324C11.1255 10.6553 10.76 10.4553 10.3912 10.5014C10.0001 10.55 9.6856 10.8463 9.62056 11.2473C9.59668 11.3946 9.60327 11.5478 9.60327 11.6984C9.60245 13.6439 9.60327 15.5902 9.60245 17.5356C9.60245 17.6863 9.60656 17.8377 9.59586 17.9876C9.55881 18.5054 9.32253 18.9014 8.85243 19.1353C8.36915 19.3765 7.88917 19.3468 7.45447 19.0274C6.98026 18.6783 6.52745 18.3004 6.0664 17.9357C5.95937 17.8509 5.85729 17.7571 5.74367 17.6813C5.35014 17.4187 4.84711 17.4837 4.55401 17.8287C4.26421 18.1695 4.26421 18.6421 4.56966 18.9928C4.73102 19.1789 4.91791 19.3427 5.08751 19.5206C5.46787 19.919 5.48186 20.4007 5.12785 20.7654C4.801 21.1013 4.29468 21.1046 3.91102 20.7596C3.69696 20.5678 3.48867 20.3685 3.2952 20.1553C2.39369 19.1624 2.38958 17.655 3.27709 16.6728C4.19917 15.6527 5.66875 15.4988 6.77196 16.3097C7.03624 16.504 7.28817 16.7164 7.54915 16.9157C7.63066 16.9782 7.72287 17.0268 7.86036 17.1124V17.1157ZM12.9277 7.74252C13.9404 6.91017 14.3224 5.21007 13.728 3.8467C13.1196 2.45122 11.6475 1.58264 10.1549 1.7473C8.59391 1.91937 7.33427 3.0481 7.04612 4.53415C6.80572 5.77156 7.2964 7.28148 8.07277 7.69395C9.17516 5.56656 11.9554 5.68511 12.9277 7.74334V7.74252Z" fill="#2670E0"/>
<path d="M0.874518 1.72974C0.872048 0.779659 1.64677 0 2.5952 0C3.53622 0 4.32165 0.781305 4.32988 1.72562C4.33811 2.68641 3.53952 3.485 2.58038 3.47594C1.62948 3.46689 0.876164 2.69629 0.874518 1.72974Z" fill="#2670E0"/>
<path d="M16.6704 1.72892C16.6696 0.778012 17.4451 0 18.3936 0C19.3346 0 20.1192 0.782128 20.1266 1.72727C20.134 2.68805 19.3354 3.48582 18.3754 3.47594C17.4237 3.46606 16.6721 2.69546 16.6712 1.72809L16.6704 1.72892Z" fill="#2670E0"/>
<path d="M17.5643 4.41311C18.5218 4.34066 19.4521 4.35548 20.2243 5.05857C20.5767 5.37965 20.8328 5.76084 20.9686 6.21776C21.0855 6.61212 20.8665 6.96038 20.459 6.96779C19.4603 6.98425 18.46 6.97026 17.4614 6.96614C17.4367 6.96614 17.412 6.94638 17.3955 6.93979C17.4507 6.11321 17.5058 5.28991 17.5651 4.41393L17.5643 4.41311Z" fill="#2670E0"/>
<path d="M3.59989 6.95983C3.51838 6.96477 3.39818 6.97877 3.27798 6.97959C2.44316 6.98124 1.60916 6.98042 0.774344 6.97959C0.720007 6.97959 0.664846 6.97959 0.610509 6.9763C0.104184 6.94666 -0.107403 6.65439 0.0523162 6.18018C0.366814 5.24821 1.02216 4.6612 1.97141 4.46032C2.44398 4.35987 2.94619 4.39775 3.42699 4.37305C3.48627 5.26303 3.54226 6.09785 3.59989 6.95901V6.95983Z" fill="#2670E0"/>
<path d="M9.20509 3.94229C9.2018 3.21779 9.7921 2.62337 10.5051 2.63243C11.204 2.64066 11.7952 3.23014 11.796 3.92088C11.7976 4.63797 11.1966 5.23733 10.4853 5.22992C9.7814 5.22251 9.20839 4.64702 9.20509 3.94311V3.94229Z" fill="#2670E0"/>
</svg>
