<svg width="16" height="16" viewBox="0 0 16 16" fill="none" xmlns="http://www.w3.org/2000/svg">
<path d="M7.99542 16C3.57224 15.9922 -0.00201978 12.4151 8.56325e-07 7.9984C0.0020215 3.57457 3.60128 -0.0191343 8.01082 7.66649e-05C12.4428 0.0192876 16.01 3.59454 15.9999 8.00724C15.9898 12.4313 12.4082 16.0076 7.99567 15.9997L7.99542 16ZM8.00931 1.45202C4.40752 1.43812 1.46572 4.37006 1.45208 7.98702C1.43844 11.5903 4.35902 14.5238 7.9838 14.5478C11.5793 14.5718 14.5259 11.6406 14.5476 8.01862C14.5691 4.41328 11.6346 1.46592 8.00931 1.45202Z" fill="#ABA7AF"/>
<path d="M7.87874 3.98059C8.4675 3.97604 9.02318 4.10116 9.52809 4.41233C10.2399 4.85089 10.5834 5.63526 10.4412 6.45981C10.3437 7.02451 10.0547 7.46409 9.60159 7.80457C9.38992 7.96382 9.17725 8.12181 8.97115 8.28813C8.71377 8.49617 8.57485 8.77093 8.53393 9.09954C8.50792 9.30808 8.37784 9.43826 8.16895 9.4509C7.96361 9.46329 7.75599 9.46556 7.55114 9.44964C7.26926 9.42765 7.10382 9.21456 7.11847 8.93119C7.15207 8.28813 7.45744 7.79017 7.93986 7.38648C8.09798 7.25428 8.26089 7.12789 8.4185 6.99544C8.82112 6.65697 8.88704 6.22321 8.74307 5.74774C8.65163 5.44567 8.41876 5.2844 8.11212 5.23612C7.52386 5.14335 7.06467 5.43531 6.89747 6.00734C6.8222 6.26492 6.70904 6.50253 6.42742 6.56673C6.11422 6.63802 5.79571 6.63903 5.53631 6.39813C5.36153 6.23585 5.30217 6.03489 5.36784 5.80108C5.69089 4.65171 6.61887 3.97857 7.87849 3.98084L7.87874 3.98059Z" fill="#ABA7AF"/>
<path d="M7.7975 12.0171C7.33023 12.0171 6.96651 11.6584 6.96778 11.1991C6.96904 10.7383 7.332 10.385 7.80205 10.3867C8.26174 10.3885 8.62521 10.7447 8.62849 11.1974C8.63203 11.6521 8.262 12.0171 7.7975 12.0171Z" fill="#ABA7AF"/>
</svg>
