<svg width="24" height="22" viewBox="0 0 24 22" fill="none" xmlns="http://www.w3.org/2000/svg">
<path d="M13.3226 10.7421L20.7836 4.06918C20.931 3.91519 21.0081 3.71712 20.9993 3.51454C20.9906 3.31196 20.8967 3.11979 20.7364 2.97643C20.5761 2.83308 20.3612 2.7491 20.1347 2.74127C19.9082 2.73345 19.6868 2.80236 19.5146 2.93423L12.0536 9.6071L4.59259 2.92618C4.42312 2.77461 4.19326 2.68945 3.95359 2.68945C3.71392 2.68945 3.48406 2.77461 3.31459 2.92618C3.14512 3.07775 3.04991 3.28332 3.04991 3.49768C3.04991 3.71203 3.14512 3.91761 3.31459 4.06918L10.7846 10.7421L3.31459 17.4149C3.22038 17.4871 3.14386 17.5759 3.08984 17.6758C3.03582 17.7756 3.00546 17.8844 3.00067 17.9952C2.99588 18.1061 3.01677 18.2166 3.06202 18.3199C3.10726 18.4232 3.17589 18.517 3.2636 18.5955C3.35131 18.6739 3.45621 18.7353 3.5717 18.7758C3.68719 18.8162 3.81079 18.8349 3.93474 18.8306C4.05868 18.8264 4.1803 18.7992 4.29196 18.7509C4.40362 18.7026 4.50291 18.6341 4.58359 18.5499L12.0536 11.877L19.5146 18.5499C19.6868 18.6818 19.9082 18.7507 20.1347 18.7428C20.3612 18.735 20.5761 18.651 20.7364 18.5077C20.8967 18.3643 20.9906 18.1722 20.9993 17.9696C21.0081 17.767 20.931 17.5689 20.7836 17.4149L13.3226 10.7421Z" fill="#174D9C"/>
</svg>
