<svg width="21" height="21" viewBox="0 0 21 21" fill="none" xmlns="http://www.w3.org/2000/svg">
<path d="M7.85786 10.4851C4.93088 10.4682 2.61307 8.12043 2.62702 5.18685C2.64096 2.32897 5.02923 -0.0320139 7.90043 0.00032838C10.9544 0.0341407 13.1372 2.53552 13.1078 5.28608C13.077 8.17703 10.743 10.5013 7.85713 10.4851H7.85786ZM11.3779 5.22801C11.3676 3.2566 9.79475 1.71814 7.80429 1.73211C5.89822 1.7446 4.34078 3.34922 4.35693 5.28461C4.37234 7.20603 5.96281 8.77904 7.87915 8.76728C9.82851 8.75552 11.3882 7.17737 11.3779 5.22801Z" fill="#2670E0"/>
<path d="M15.7315 19.8534C15.7315 19.9637 15.7374 20.0739 15.7308 20.1834C15.7029 20.6399 15.3822 20.9692 14.944 20.9971C14.4853 21.0265 14.141 20.7685 14.0442 20.3143C14.0185 20.1959 14.0089 20.0724 14.006 19.9512C13.9157 16.9044 11.5928 14.3971 8.57038 14.0421C5.31165 13.6599 2.21293 15.9731 1.78283 19.355C1.75054 19.6094 1.73733 19.8659 1.72192 20.1217C1.68962 20.6627 1.34467 21.0089 0.84338 20.9979C0.346497 20.9868 -0.00579927 20.6245 7.23093e-05 20.0849C0.00961363 19.1367 0.168881 18.2098 0.528516 17.33C1.61916 14.6654 3.57513 12.9792 6.39203 12.4294C9.06286 11.9082 11.4276 12.6536 13.3887 14.5552C14.8765 15.9981 15.62 17.7916 15.733 19.8534H15.7315Z" fill="#2670E0"/>
<path d="M18.3692 11.366C18.3692 11.8512 18.3692 12.2768 18.3692 12.7031C18.3692 12.8501 18.3744 12.9971 18.3663 13.1434C18.3399 13.6425 17.9714 13.9982 17.4922 13.9924C17.0349 13.9865 16.6643 13.6329 16.6459 13.1529C16.6291 12.7134 16.6415 12.2731 16.6408 11.8328C16.6408 11.6997 16.6408 11.5667 16.6408 11.3903C16.4859 11.3815 16.3568 11.369 16.2283 11.3668C15.752 11.3609 15.2742 11.38 14.8001 11.3499C14.2129 11.3124 13.8591 10.7104 14.0918 10.1716C14.2357 9.83859 14.5006 9.65997 14.8668 9.65483C15.3065 9.64895 15.7461 9.65189 16.1858 9.65115C16.3179 9.65115 16.4492 9.65115 16.6085 9.65115C16.6217 9.50929 16.6386 9.40418 16.6393 9.2998C16.6423 8.83525 16.6313 8.37069 16.6445 7.90614C16.6584 7.39014 17.0092 7.03437 17.4863 7.02555C17.9861 7.01673 18.3516 7.37176 18.3656 7.90247C18.3781 8.36628 18.3678 8.83157 18.37 9.29612C18.37 9.39242 18.3803 9.48944 18.3883 9.62543C18.5263 9.63425 18.6562 9.64821 18.7854 9.64968C19.2617 9.65483 19.7381 9.64454 20.2144 9.66218C20.566 9.67541 20.8038 9.88196 20.9344 10.2002C21.0687 10.5273 20.9887 10.8272 20.7656 11.086C20.5968 11.2815 20.3693 11.3616 20.1116 11.3616C19.6845 11.3616 19.2566 11.3638 18.8294 11.3646C18.6973 11.3646 18.5652 11.3646 18.37 11.3646L18.3692 11.366Z" fill="#2670E0"/>
</svg>
