<svg width="329" height="255" viewBox="0 0 329 255" fill="none" xmlns="http://www.w3.org/2000/svg">
<path d="M269.536 199.822C269.446 199.671 269.304 199.563 269.134 199.519C268.964 199.475 268.786 199.501 268.634 199.591L266.449 200.883L265.158 198.695C265.068 198.543 264.925 198.436 264.755 198.392C264.585 198.348 264.407 198.373 264.256 198.464C264.105 198.554 263.998 198.696 263.954 198.866C263.909 199.036 263.935 199.215 264.025 199.366L265.316 201.554L263.13 202.846C262.979 202.936 262.872 203.079 262.828 203.249C262.783 203.419 262.809 203.598 262.899 203.749C262.989 203.9 263.132 204.007 263.301 204.051C263.471 204.096 263.65 204.07 263.801 203.98L265.987 202.688L267.277 204.876C267.424 205.122 267.705 205.24 267.972 205.187C268.043 205.173 268.113 205.146 268.179 205.107C268.492 204.922 268.595 204.517 268.412 204.204L267.121 202.017L269.307 200.725C269.62 200.539 269.723 200.135 269.54 199.822H269.536Z" fill="#2670E0"/>
<path d="M275.076 214.301C273.495 214.301 272.208 213.012 272.208 211.43C272.208 209.847 273.495 208.558 275.076 208.558C276.658 208.558 277.945 209.847 277.945 211.43C277.945 213.012 276.658 214.301 275.076 214.301ZM275.076 210.093C274.339 210.093 273.741 210.693 273.741 211.43C273.741 212.166 274.341 212.766 275.076 212.766C275.812 212.766 276.411 212.166 276.411 211.43C276.411 210.693 275.812 210.093 275.076 210.093Z" fill="#2670E0"/>
<path d="M29.5421 255C28.2699 255 27.2356 253.965 27.2356 252.691C27.2356 251.418 28.2699 250.383 29.5421 250.383C30.8142 250.383 31.8485 251.418 31.8485 252.691C31.8485 253.965 30.8142 255 29.5421 255ZM29.5421 251.617C28.9493 251.617 28.4687 252.1 28.4687 252.691C28.4687 253.283 28.951 253.766 29.5421 253.766C30.1331 253.766 30.6155 253.283 30.6155 252.691C30.6155 252.1 30.1331 251.617 29.5421 251.617Z" fill="#2670E0"/>
<path d="M284.998 6.7063C283.725 6.7063 282.691 5.671 282.691 4.39771C282.691 3.12441 283.725 2.08911 284.998 2.08911C286.27 2.08911 287.304 3.12441 287.304 4.39771C287.304 5.671 286.27 6.7063 284.998 6.7063ZM284.998 3.32331C284.405 3.32331 283.924 3.80611 283.924 4.39771C283.924 4.98931 284.407 5.4721 284.998 5.4721C285.589 5.4721 286.071 4.98931 286.071 4.39771C286.071 3.80611 285.589 3.32331 284.998 3.32331Z" fill="#2670E0"/>
<path d="M324.487 65.1826C324.359 65.2438 324.264 65.3526 324.218 65.4869C324.172 65.6212 324.181 65.764 324.244 65.8915L325.137 67.7275L323.303 68.6217C323.176 68.6829 323.08 68.7917 323.035 68.926C322.989 69.0603 322.997 69.2031 323.058 69.3306C323.119 69.4581 323.228 69.5533 323.362 69.5992C323.496 69.6451 323.639 69.6366 323.767 69.5754L325.601 68.6812L326.494 70.5172C326.555 70.6447 326.664 70.7399 326.798 70.7858C326.932 70.8317 327.075 70.8232 327.202 70.7603C327.33 70.6991 327.425 70.5903 327.471 70.456C327.517 70.3217 327.508 70.1789 327.445 70.0514L326.552 68.2154L328.386 67.3212C328.593 67.2209 328.706 67.0016 328.68 66.784C328.673 66.7262 328.656 66.6684 328.631 66.6123C328.503 66.3488 328.186 66.24 327.923 66.3675L326.088 67.2617L325.195 65.4257C325.068 65.1622 324.75 65.0534 324.487 65.1809V65.1826Z" fill="#2670E0"/>
<path d="M291.157 109.126C289.885 109.126 288.85 108.091 288.85 106.817C288.85 105.544 289.885 104.509 291.157 104.509C292.429 104.509 293.463 105.544 293.463 106.817C293.463 108.091 292.429 109.126 291.157 109.126ZM291.157 105.743C290.564 105.743 290.083 106.226 290.083 106.817C290.083 107.409 290.566 107.892 291.157 107.892C291.748 107.892 292.23 107.409 292.23 106.817C292.23 106.226 291.748 105.743 291.157 105.743Z" fill="#2670E0"/>
<path d="M0.922668 144.425C0.819064 144.521 0.759619 144.652 0.756222 144.793C0.751127 144.935 0.80208 145.071 0.89889 145.173L2.295 146.662L0.807175 148.059C0.703571 148.156 0.644126 148.287 0.640729 148.428C0.635634 148.569 0.686587 148.703 0.783397 148.807C0.880207 148.911 1.01099 148.97 1.15196 148.974C1.29292 148.979 1.4271 148.928 1.5307 148.831L3.01852 147.434L4.41463 148.923C4.51144 149.026 4.64222 149.086 4.78319 149.089C4.92416 149.093 5.05833 149.043 5.16194 148.947C5.26554 148.85 5.32499 148.719 5.32838 148.578C5.33348 148.437 5.28253 148.301 5.18571 148.199L3.78961 146.709L5.27743 145.312C5.44557 145.154 5.48803 144.911 5.39972 144.712C5.37594 144.659 5.34367 144.608 5.30121 144.564C5.10079 144.351 4.7662 144.34 4.5522 144.54L3.06438 145.938L1.66828 144.448C1.46786 144.236 1.13327 144.224 0.919271 144.425H0.922668Z" fill="#2670E0"/>
<path d="M16.3438 160.541C15.0717 160.541 14.0374 159.506 14.0374 158.232C14.0374 156.959 15.0717 155.924 16.3438 155.924C17.6159 155.924 18.6503 156.959 18.6503 158.232C18.6503 159.506 17.6159 160.541 16.3438 160.541ZM16.3438 157.158C15.7511 157.158 15.2704 157.641 15.2704 158.232C15.2704 158.824 15.7528 159.307 16.3438 159.307C16.9349 159.307 17.4172 158.824 17.4172 158.232C17.4172 157.641 16.9349 157.158 16.3438 157.158Z" fill="#2670E0"/>
<path d="M59.4398 239.28C59.1918 239.28 58.9863 239.086 58.971 238.836C58.9557 238.578 59.1544 238.355 59.4126 238.34C60.9599 238.253 62.5275 238.099 64.0697 237.879C64.3262 237.844 64.5639 238.022 64.5996 238.279C64.6353 238.535 64.4569 238.773 64.2005 238.809C62.6328 239.03 61.0397 239.188 59.4653 239.277C59.4568 239.277 59.4466 239.277 59.4381 239.277L59.4398 239.28ZM52.838 239.261C52.8278 239.261 52.8176 239.261 52.8074 239.261C51.2296 239.163 49.6382 238.994 48.0756 238.762C47.8192 238.724 47.6425 238.484 47.6799 238.228C47.7173 237.971 47.9567 237.794 48.2132 237.832C49.7503 238.061 51.3145 238.226 52.8652 238.323C53.1233 238.34 53.3204 238.563 53.3051 238.821C53.2898 239.069 53.0826 239.261 52.8363 239.261H52.838ZM70.612 237.514C70.4031 237.514 70.2129 237.374 70.1585 237.164C70.0923 236.912 70.2435 236.655 70.4931 236.589C71.9979 236.193 73.5027 235.73 74.9634 235.21C75.208 235.124 75.4763 235.251 75.5629 235.496C75.6496 235.741 75.5222 236.009 75.2776 236.096C73.7915 236.623 72.2612 237.096 70.7309 237.497C70.6902 237.507 70.6511 237.512 70.612 237.512V237.514ZM41.6794 237.405C41.6386 237.405 41.5961 237.4 41.5554 237.388C40.0319 236.971 38.5067 236.484 37.0223 235.94C36.7794 235.849 36.6537 235.581 36.7437 235.336C36.8337 235.093 37.1021 234.967 37.3467 235.057C38.8056 235.593 40.3053 236.072 41.8033 236.482C42.053 236.55 42.2008 236.808 42.1328 237.058C42.0751 237.267 41.8866 237.405 41.6811 237.405H41.6794ZM81.2017 233.549C81.0285 233.549 80.862 233.454 80.7805 233.288C80.665 233.055 80.7601 232.772 80.9928 232.659C82.3855 231.968 83.7646 231.21 85.0928 230.404C85.3153 230.27 85.604 230.341 85.7382 230.562C85.8724 230.785 85.801 231.074 85.5802 231.208C84.23 232.028 82.8271 232.8 81.4106 233.5C81.3444 233.534 81.273 233.549 81.2034 233.549H81.2017ZM31.127 233.332C31.0557 233.332 30.9827 233.315 30.9147 233.281C29.5067 232.567 28.1106 231.781 26.7655 230.95C26.5447 230.814 26.4767 230.525 26.6126 230.304C26.7485 230.083 27.0389 230.015 27.258 230.151C28.5811 230.969 29.9534 231.741 31.3393 232.443C31.5703 232.56 31.6637 232.842 31.5465 233.075C31.4633 233.238 31.2986 233.332 31.127 233.332ZM90.7672 227.523C90.628 227.523 90.4904 227.462 90.397 227.343C90.2373 227.139 90.273 226.843 90.4768 226.683C91.6997 225.726 92.8988 224.703 94.0367 223.645C94.2269 223.468 94.5242 223.48 94.7008 223.671C94.8774 223.861 94.8655 224.159 94.6753 224.335C93.517 225.411 92.2992 226.452 91.0543 227.424C90.9676 227.492 90.8657 227.525 90.7655 227.525L90.7672 227.523ZM21.6074 227.224C21.5055 227.224 21.4019 227.19 21.3152 227.122C20.0771 226.139 18.8661 225.09 17.7163 224.007C17.5277 223.829 17.5176 223.531 17.6959 223.343C17.8742 223.154 18.1714 223.144 18.36 223.322C19.4911 224.388 20.6817 225.418 21.8995 226.386C22.1033 226.547 22.1373 226.843 21.9759 227.045C21.8825 227.163 21.7466 227.224 21.6074 227.224ZM98.9214 219.686C98.8144 219.686 98.7057 219.649 98.6174 219.574C98.4203 219.405 98.3966 219.11 98.5647 218.911C99.5719 217.726 100.54 216.483 101.444 215.218C101.595 215.008 101.887 214.958 102.099 215.11C102.311 215.261 102.359 215.553 102.208 215.766C101.289 217.053 100.304 218.316 99.2797 219.519C99.1863 219.628 99.0555 219.684 98.9214 219.684V219.686ZM13.5042 219.332C13.37 219.332 13.2375 219.275 13.1441 219.164C12.1285 217.952 11.1519 216.682 10.2432 215.388C10.0937 215.176 10.1447 214.883 10.357 214.734C10.5693 214.584 10.8614 214.635 11.0109 214.848C11.9043 216.119 12.8639 217.367 13.8625 218.561C14.029 218.759 14.0035 219.055 13.8048 219.222C13.7165 219.295 13.6095 219.332 13.5042 219.332ZM105.345 210.37C105.268 210.37 105.19 210.351 105.119 210.312C104.891 210.186 104.81 209.901 104.934 209.675C105.683 208.311 106.384 206.9 107.016 205.481C107.121 205.244 107.4 205.137 107.636 205.243C107.872 205.348 107.979 205.627 107.874 205.863C107.23 207.308 106.518 208.743 105.756 210.129C105.671 210.283 105.51 210.372 105.345 210.372V210.37ZM7.15716 209.967C6.99072 209.967 6.82767 209.877 6.74275 209.721C5.99374 208.328 5.29569 206.887 4.66727 205.435C4.56367 205.197 4.67407 204.92 4.91185 204.816C5.14962 204.712 5.42647 204.823 5.53007 205.061C6.1483 206.487 6.83446 207.905 7.57158 209.273C7.69387 209.501 7.60894 209.787 7.38136 209.909C7.31002 209.947 7.23359 209.965 7.15886 209.965L7.15716 209.967ZM109.773 199.952C109.727 199.952 109.679 199.946 109.633 199.932C109.385 199.855 109.248 199.592 109.324 199.344C109.785 197.858 110.187 196.335 110.52 194.817C110.576 194.563 110.826 194.404 111.079 194.458C111.332 194.514 111.491 194.764 111.437 195.017C111.099 196.561 110.69 198.111 110.221 199.623C110.158 199.825 109.973 199.954 109.773 199.954V199.952ZM2.83637 199.509C2.63426 199.509 2.44743 199.378 2.38629 199.174C1.93451 197.662 1.54047 196.11 1.21607 194.56C1.16342 194.307 1.32477 194.057 1.57954 194.004C1.8343 193.951 2.08227 194.113 2.13492 194.368C2.45422 195.893 2.84316 197.421 3.28645 198.907C3.36118 199.155 3.22021 199.417 2.97055 199.492C2.92639 199.505 2.88053 199.512 2.83637 199.512V199.509ZM112.008 188.855C111.992 188.855 111.977 188.855 111.962 188.853C111.704 188.828 111.515 188.598 111.541 188.34C111.69 186.793 111.777 185.22 111.795 183.665C111.799 183.405 112.011 183.194 112.271 183.201C112.531 183.204 112.738 183.416 112.735 183.677C112.716 185.259 112.629 186.859 112.477 188.431C112.453 188.675 112.249 188.856 112.009 188.856L112.008 188.855ZM0.696354 188.394C0.456876 188.394 0.251367 188.21 0.229287 187.967C0.0866197 186.388 0.00849213 184.788 0 183.207C0 182.947 0.207208 182.737 0.467067 182.735H0.470464C0.728624 182.735 0.939229 182.944 0.939229 183.202C0.947721 184.756 1.02415 186.33 1.16342 187.881C1.1872 188.139 0.996976 188.367 0.738815 188.391C0.725228 188.391 0.709942 188.392 0.696354 188.392V188.394ZM111.95 177.536C111.714 177.536 111.51 177.358 111.485 177.116C111.32 175.574 111.087 174.016 110.793 172.484L110.781 172.424C110.732 172.169 110.899 171.923 111.153 171.874C111.408 171.824 111.654 171.991 111.704 172.246L111.716 172.307C112.015 173.864 112.251 175.45 112.419 177.018C112.446 177.276 112.259 177.507 112.003 177.535C111.986 177.536 111.969 177.538 111.952 177.538L111.95 177.536ZM0.825435 177.07C0.80845 177.07 0.789768 177.07 0.771085 177.067C0.512924 177.038 0.327796 176.805 0.358368 176.547C0.536702 174.976 0.786371 173.393 1.09718 171.841C1.14814 171.586 1.39611 171.423 1.64917 171.472C1.90393 171.523 2.06868 171.772 2.01603 172.025C1.71031 173.55 1.46574 175.107 1.2891 176.651C1.26193 176.89 1.05812 177.067 0.823736 177.067L0.825435 177.07ZM109.615 166.398C109.416 166.398 109.231 166.27 109.168 166.07C108.698 164.586 108.157 163.107 107.563 161.672C107.464 161.432 107.578 161.157 107.818 161.058C108.057 160.96 108.332 161.073 108.431 161.313C109.034 162.772 109.584 164.278 110.063 165.786C110.141 166.032 110.005 166.298 109.757 166.376C109.71 166.391 109.662 166.398 109.615 166.398ZM3.24229 166.012C3.19304 166.012 3.14378 166.005 3.09623 165.988C2.84996 165.907 2.71578 165.641 2.79731 165.395C3.28985 163.894 3.85373 162.393 4.47195 160.937C4.57386 160.699 4.849 160.587 5.08678 160.689C5.32626 160.791 5.43666 161.067 5.33475 161.305C4.72672 162.736 4.17303 164.212 3.68898 165.689C3.62444 165.886 3.44101 166.012 3.24229 166.012ZM105.112 156.018C104.947 156.018 104.788 155.931 104.703 155.778C103.942 154.423 103.115 153.083 102.242 151.797C102.096 151.582 102.152 151.29 102.366 151.144C102.58 150.998 102.872 151.054 103.018 151.268C103.906 152.577 104.749 153.939 105.521 155.317C105.649 155.543 105.567 155.831 105.341 155.956C105.268 155.997 105.19 156.016 105.112 156.016V156.018ZM7.83823 155.669C7.75841 155.669 7.67858 155.649 7.60555 155.608C7.37966 155.479 7.30153 155.191 7.43061 154.967C8.21528 153.595 9.06789 152.239 9.96296 150.936C10.1107 150.722 10.4029 150.669 10.6152 150.816C10.8292 150.964 10.8818 151.256 10.7357 151.468C9.85426 152.749 9.01524 154.083 8.24416 155.433C8.15754 155.584 7.99958 155.669 7.83653 155.669H7.83823ZM98.6038 146.768C98.473 146.768 98.3422 146.714 98.2488 146.606C97.2297 145.433 96.1495 144.288 95.0337 143.203C94.8485 143.023 94.8435 142.725 95.0235 142.538C95.2035 142.353 95.5007 142.348 95.6876 142.528C96.8204 143.631 97.921 144.796 98.957 145.988C99.1269 146.183 99.1065 146.481 98.9112 146.651C98.8229 146.727 98.7125 146.766 98.6038 146.766V146.768ZM14.4094 146.459C14.299 146.459 14.1886 146.419 14.1003 146.341C13.905 146.17 13.8863 145.874 14.0579 145.678C15.1007 144.49 16.2081 143.332 17.346 142.236C17.5328 142.056 17.8301 142.062 18.0101 142.249C18.1901 142.436 18.1833 142.734 17.9965 142.914C16.8773 143.992 15.7886 145.131 14.7627 146.299C14.6693 146.404 14.5402 146.459 14.4094 146.459ZM90.3647 139.016C90.2645 139.016 90.1643 138.984 90.0794 138.919C88.8463 137.974 87.5572 137.068 86.2477 136.23C86.0286 136.09 85.9658 135.8 86.1051 135.58C86.2443 135.363 86.5348 135.298 86.7539 135.438C88.0837 136.291 89.3949 137.211 90.65 138.171C90.8556 138.329 90.8946 138.623 90.7367 138.831C90.6449 138.951 90.504 139.014 90.363 139.014L90.3647 139.016ZM22.6927 138.756C22.55 138.756 22.4107 138.691 22.3173 138.569C22.1611 138.361 22.2018 138.067 22.409 137.911C23.6693 136.957 24.9872 136.046 26.3222 135.203C26.5413 135.065 26.8317 135.13 26.9693 135.349C27.1069 135.568 27.0423 135.859 26.8232 135.997C25.5086 136.826 24.2144 137.721 22.9746 138.659C22.8897 138.724 22.7912 138.754 22.6927 138.754V138.756ZM80.7414 133.073C80.6718 133.073 80.6022 133.058 80.5359 133.025C79.1381 132.345 77.6945 131.718 76.244 131.159C76.0028 131.065 75.8822 130.793 75.974 130.552C76.0674 130.31 76.3391 130.19 76.5803 130.281C78.0545 130.849 79.522 131.488 80.9435 132.179C81.1762 132.293 81.2747 132.573 81.1609 132.806C81.0794 132.973 80.913 133.071 80.738 133.071L80.7414 133.073ZM32.3601 132.886C32.1852 132.886 32.0153 132.787 31.9355 132.617C31.8251 132.383 31.9236 132.102 32.158 131.992C33.5847 131.313 35.0589 130.689 36.5382 130.134C36.7811 130.042 37.0511 130.166 37.1429 130.409C37.2346 130.652 37.1106 130.922 36.8677 131.014C35.4122 131.56 33.9634 132.174 32.5605 132.84C32.496 132.871 32.4263 132.886 32.3601 132.886ZM70.1195 129.183C70.0804 129.183 70.0431 129.178 70.004 129.168C68.4975 128.784 66.957 128.461 65.425 128.207C65.1686 128.165 64.997 127.924 65.0395 127.667C65.082 127.41 65.3231 127.237 65.5796 127.281C67.1387 127.539 68.7047 127.869 70.2367 128.258C70.488 128.323 70.6392 128.578 70.5764 128.83C70.522 129.042 70.3318 129.183 70.1212 129.183H70.1195ZM43.0126 129.097C42.802 129.097 42.6101 128.954 42.5574 128.738C42.4963 128.486 42.6492 128.231 42.9022 128.17C43.8347 127.941 44.7892 127.733 45.7369 127.55C46.3415 127.434 46.9581 127.325 47.5661 127.228C47.8226 127.187 48.062 127.363 48.1028 127.619C48.1436 127.876 47.9686 128.116 47.7122 128.156C47.1143 128.252 46.508 128.357 45.9135 128.473C44.9811 128.653 44.0436 128.857 43.1247 129.083C43.0873 129.091 43.05 129.097 43.0126 129.097ZM58.9303 127.522C58.9303 127.522 58.9167 127.522 58.9082 127.522C58.0861 127.485 57.2522 127.466 56.4302 127.466C55.6999 127.466 54.961 127.482 54.2307 127.51C53.9743 127.522 53.7535 127.318 53.7433 127.06C53.7331 126.8 53.9352 126.582 54.1933 126.572C54.9356 126.543 55.6897 126.528 56.4302 126.528C57.2658 126.528 58.115 126.547 58.9506 126.584C59.2105 126.596 59.4109 126.815 59.399 127.075C59.3871 127.327 59.1799 127.524 58.9303 127.524V127.522Z" fill="#2670E0"/>
<path d="M221.842 196.793C221.572 196.793 221.3 196.793 221.03 196.79C220.77 196.788 220.563 196.576 220.565 196.316C220.566 196.057 220.777 195.85 221.033 195.85H221.037C222.574 195.862 224.133 195.838 225.672 195.778C225.932 195.766 226.149 195.97 226.159 196.229C226.169 196.489 225.967 196.707 225.709 196.717C224.427 196.766 223.126 196.792 221.842 196.792V196.793ZM214.522 196.521C214.51 196.521 214.498 196.521 214.486 196.521C212.937 196.406 211.371 196.251 209.83 196.061C209.574 196.028 209.391 195.794 209.421 195.537C209.453 195.279 209.688 195.097 209.944 195.127C211.469 195.314 213.022 195.469 214.556 195.583C214.814 195.602 215.007 195.828 214.989 196.086C214.97 196.333 214.764 196.521 214.522 196.521ZM232.192 196.253C231.954 196.253 231.75 196.072 231.725 195.831C231.698 195.573 231.885 195.341 232.143 195.314C233.675 195.153 235.222 194.954 236.739 194.723C236.995 194.684 237.235 194.86 237.274 195.117C237.313 195.374 237.136 195.613 236.881 195.653C235.349 195.887 233.788 196.088 232.241 196.249C232.224 196.251 232.209 196.253 232.192 196.253ZM203.45 195.051C203.421 195.051 203.39 195.047 203.361 195.042C201.836 194.75 200.297 194.417 198.789 194.051C198.538 193.99 198.381 193.737 198.443 193.483C198.504 193.232 198.758 193.075 199.01 193.137C200.503 193.499 202.026 193.828 203.538 194.119C203.793 194.168 203.959 194.415 203.91 194.668C203.867 194.893 203.67 195.049 203.45 195.049V195.051ZM243.216 194.461C243.001 194.461 242.807 194.311 242.758 194.092C242.702 193.839 242.861 193.587 243.115 193.531C244.616 193.198 246.129 192.824 247.614 192.421C247.865 192.353 248.121 192.501 248.189 192.751C248.257 193.001 248.11 193.259 247.86 193.327C246.362 193.735 244.833 194.112 243.318 194.449C243.284 194.456 243.25 194.461 243.216 194.461ZM192.61 192.315C192.564 192.315 192.517 192.309 192.469 192.293C190.986 191.828 189.494 191.318 188.033 190.779C187.79 190.689 187.664 190.418 187.754 190.175C187.844 189.932 188.114 189.806 188.357 189.896C189.804 190.428 191.282 190.933 192.751 191.396C192.999 191.474 193.137 191.737 193.059 191.986C192.996 192.186 192.811 192.315 192.61 192.315ZM253.964 191.421C253.769 191.421 253.587 191.299 253.521 191.105C253.436 190.86 253.567 190.592 253.811 190.507C255.265 190.003 256.726 189.458 258.152 188.887C258.394 188.79 258.667 188.907 258.762 189.148C258.859 189.39 258.742 189.663 258.501 189.759C257.06 190.337 255.584 190.886 254.117 191.394C254.066 191.411 254.015 191.42 253.964 191.42V191.421ZM182.151 188.349C182.087 188.349 182.022 188.336 181.961 188.309C180.543 187.674 179.118 186.998 177.73 186.297C177.499 186.18 177.406 185.898 177.523 185.667C177.64 185.436 177.922 185.342 178.153 185.459C179.529 186.155 180.939 186.824 182.343 187.452C182.579 187.557 182.686 187.836 182.581 188.072C182.503 188.247 182.331 188.351 182.151 188.351V188.349ZM264.285 187.171C264.11 187.171 263.942 187.073 263.862 186.904C263.75 186.67 263.849 186.389 264.082 186.277C265.464 185.612 266.85 184.905 268.2 184.174C268.428 184.05 268.713 184.135 268.837 184.365C268.961 184.592 268.876 184.878 268.647 185.002C267.283 185.74 265.884 186.454 264.488 187.125C264.421 187.158 264.353 187.171 264.285 187.171ZM172.219 183.214C172.137 183.214 172.056 183.193 171.981 183.147C170.643 182.355 169.306 181.522 168.008 180.667C167.791 180.524 167.732 180.234 167.874 180.016C168.017 179.798 168.307 179.739 168.525 179.882C169.811 180.727 171.134 181.554 172.46 182.338C172.683 182.471 172.757 182.758 172.625 182.982C172.536 183.13 172.38 183.214 172.221 183.214H172.219ZM274.046 181.769C273.89 181.769 273.737 181.69 273.649 181.549C273.511 181.33 273.576 181.039 273.795 180.902C275.094 180.082 276.392 179.22 277.65 178.34C277.863 178.192 278.155 178.243 278.304 178.455C278.454 178.668 278.401 178.96 278.189 179.11C276.918 179.999 275.609 180.869 274.296 181.697C274.218 181.747 274.131 181.77 274.046 181.77V181.769ZM162.939 176.983C162.84 176.983 162.74 176.953 162.655 176.888C161.415 175.95 160.184 174.969 158.992 173.974C158.793 173.808 158.766 173.512 158.932 173.313C159.099 173.114 159.394 173.087 159.593 173.253C160.773 174.239 161.994 175.21 163.222 176.14C163.43 176.296 163.47 176.59 163.314 176.798C163.222 176.92 163.081 176.985 162.939 176.985V176.983ZM283.133 175.283C282.995 175.283 282.859 175.224 282.766 175.108C282.603 174.906 282.637 174.61 282.839 174.447C284.036 173.485 285.229 172.48 286.38 171.46C286.574 171.288 286.871 171.307 287.043 171.501C287.214 171.695 287.195 171.992 287.002 172.164C285.838 173.192 284.636 174.207 283.427 175.18C283.34 175.249 283.236 175.283 283.133 175.283ZM154.426 169.743C154.309 169.743 154.193 169.7 154.102 169.614C152.977 168.543 151.865 167.429 150.793 166.306C150.615 166.119 150.622 165.821 150.809 165.641C150.995 165.462 151.293 165.469 151.473 165.656C152.534 166.77 153.636 167.871 154.751 168.934C154.939 169.112 154.946 169.41 154.766 169.598C154.674 169.695 154.55 169.745 154.426 169.745V169.743ZM291.428 167.802C291.309 167.802 291.188 167.756 291.097 167.666C290.913 167.484 290.912 167.186 291.093 167.001C292.175 165.908 293.245 164.774 294.274 163.63C294.448 163.436 294.745 163.422 294.937 163.596C295.129 163.769 295.146 164.067 294.971 164.259C293.931 165.413 292.851 166.559 291.759 167.662C291.667 167.756 291.547 167.802 291.426 167.802H291.428ZM146.793 161.585C146.659 161.585 146.525 161.527 146.433 161.416C145.438 160.225 144.46 158.992 143.522 157.755C143.366 157.547 143.407 157.253 143.612 157.097C143.82 156.94 144.113 156.981 144.27 157.187C145.197 158.412 146.167 159.633 147.154 160.813C147.32 161.012 147.293 161.308 147.094 161.474C147.006 161.547 146.899 161.583 146.793 161.583V161.585ZM298.825 159.424C298.723 159.424 298.621 159.392 298.534 159.324C298.33 159.164 298.295 158.868 298.456 158.664C299.409 157.454 300.345 156.204 301.236 154.951C301.387 154.74 301.68 154.691 301.892 154.842C302.103 154.994 302.152 155.286 302.001 155.499C301.099 156.763 300.154 158.025 299.193 159.247C299.1 159.364 298.964 159.426 298.825 159.426V159.424ZM140.137 152.617C139.984 152.617 139.835 152.542 139.745 152.405C138.892 151.109 138.06 149.775 137.27 148.439C137.138 148.216 137.213 147.927 137.435 147.794C137.658 147.662 137.946 147.736 138.079 147.959C138.862 149.282 139.686 150.604 140.53 151.888C140.672 152.105 140.613 152.396 140.395 152.539C140.316 152.592 140.226 152.617 140.137 152.617ZM305.228 150.259C305.143 150.259 305.058 150.237 304.981 150.19C304.761 150.054 304.693 149.763 304.829 149.544C305.639 148.231 306.427 146.883 307.171 145.538C307.296 145.311 307.582 145.229 307.809 145.355C308.037 145.481 308.118 145.766 307.993 145.994C307.24 147.352 306.445 148.714 305.627 150.038C305.538 150.183 305.384 150.261 305.228 150.261V150.259ZM134.548 142.953C134.376 142.953 134.212 142.857 134.128 142.694C133.43 141.31 132.756 139.891 132.126 138.473C132.021 138.237 132.126 137.958 132.364 137.853C132.6 137.747 132.878 137.853 132.984 138.091C133.609 139.493 134.276 140.899 134.967 142.271C135.085 142.502 134.991 142.786 134.76 142.902C134.692 142.936 134.621 142.953 134.55 142.953H134.548ZM310.55 140.421C310.484 140.421 310.416 140.408 310.352 140.377C310.117 140.267 310.015 139.988 310.126 139.752C310.781 138.356 311.41 136.926 311.998 135.502C312.096 135.262 312.371 135.148 312.611 135.247C312.85 135.345 312.964 135.621 312.865 135.86C312.273 137.298 311.637 138.742 310.975 140.151C310.895 140.321 310.725 140.421 310.55 140.421ZM130.101 132.708C129.909 132.708 129.731 132.591 129.661 132.401C129.126 130.942 128.619 129.451 128.153 127.969C128.075 127.721 128.213 127.457 128.461 127.379C128.709 127.301 128.972 127.439 129.05 127.687C129.51 129.156 130.015 130.633 130.545 132.076C130.635 132.319 130.509 132.589 130.266 132.68C130.213 132.7 130.157 132.708 130.105 132.708H130.101ZM314.717 130.033C314.667 130.033 314.617 130.024 314.567 130.009C314.321 129.926 314.189 129.66 314.272 129.414C314.763 127.95 315.225 126.458 315.644 124.975C315.715 124.725 315.975 124.581 316.223 124.651C316.473 124.722 316.617 124.98 316.548 125.23C316.123 126.728 315.658 128.236 315.162 129.713C315.095 129.909 314.912 130.033 314.717 130.033ZM126.854 122.012C126.642 122.012 126.45 121.868 126.399 121.653C126.034 120.144 125.701 118.604 125.407 117.077C125.358 116.822 125.524 116.576 125.779 116.526C126.034 116.477 126.28 116.644 126.329 116.899C126.62 118.412 126.949 119.935 127.311 121.431C127.372 121.682 127.217 121.937 126.964 121.999C126.927 122.007 126.89 122.012 126.854 122.012ZM317.662 119.239C317.63 119.239 317.597 119.236 317.563 119.229C317.31 119.175 317.147 118.927 317.202 118.672C317.521 117.167 317.808 115.634 318.054 114.114C318.097 113.857 318.338 113.684 318.593 113.726C318.849 113.767 319.022 114.009 318.981 114.265C318.732 115.8 318.443 117.349 318.12 118.867C318.073 119.088 317.879 119.239 317.662 119.239ZM124.852 111.015C124.619 111.015 124.415 110.841 124.386 110.603C124.196 109.063 124.038 107.496 123.919 105.944C123.899 105.685 124.092 105.459 124.35 105.439C124.61 105.42 124.835 105.612 124.855 105.871C124.972 107.407 125.128 108.961 125.319 110.486C125.351 110.745 125.167 110.979 124.911 111.01C124.891 111.011 124.872 111.013 124.853 111.013L124.852 111.015ZM319.348 108.189C319.333 108.189 319.319 108.189 319.304 108.188C319.046 108.164 318.856 107.934 318.881 107.676C319.026 106.144 319.136 104.587 319.207 103.05C319.219 102.792 319.44 102.591 319.698 102.603C319.958 102.615 320.157 102.834 320.145 103.095C320.072 104.647 319.961 106.219 319.815 107.766C319.792 108.009 319.588 108.191 319.348 108.191V108.189ZM124.101 99.8578C123.844 99.8578 123.634 99.6504 123.632 99.3937C123.629 99.0265 123.625 98.6593 123.625 98.2938C123.625 97.1038 123.647 95.8985 123.69 94.7119C123.7 94.4518 123.914 94.2512 124.176 94.2597C124.435 94.2699 124.638 94.4875 124.627 94.7459C124.585 95.9223 124.563 97.1157 124.563 98.2938C124.563 98.6559 124.564 99.0197 124.57 99.3835C124.573 99.6436 124.364 99.8561 124.106 99.8578H124.101ZM319.763 97.0171C319.508 97.0171 319.299 96.8131 319.294 96.5564C319.263 95.0196 319.197 93.4607 319.095 91.9205L319.085 91.7709C319.068 91.5125 319.263 91.2881 319.522 91.2711C319.781 91.2541 320.004 91.4496 320.021 91.708L320.031 91.8593C320.135 93.4131 320.203 94.9873 320.232 96.5377C320.237 96.7978 320.031 97.012 319.771 97.0171C319.768 97.0171 319.764 97.0171 319.761 97.0171H319.763ZM124.612 88.6905C124.597 88.6905 124.58 88.6905 124.563 88.6888C124.305 88.6616 124.118 88.4321 124.143 88.1737C124.303 86.6267 124.502 85.0644 124.734 83.5293C124.773 83.2726 125.013 83.0958 125.269 83.1349C125.526 83.174 125.702 83.4137 125.663 83.6704C125.432 85.1919 125.235 86.7389 125.077 88.2706C125.052 88.512 124.848 88.6922 124.61 88.6922L124.612 88.6905ZM318.897 85.7189C318.666 85.7189 318.463 85.5472 318.431 85.3109C318.226 83.7843 317.983 82.2441 317.706 80.7311C317.66 80.4761 317.828 80.2313 318.083 80.1837C318.338 80.1378 318.582 80.3061 318.63 80.5611C318.908 82.0894 319.155 83.6449 319.362 85.1851C319.396 85.4418 319.216 85.6781 318.959 85.7138C318.939 85.7172 318.917 85.7172 318.897 85.7172V85.7189ZM126.394 77.6541C126.36 77.6541 126.326 77.6507 126.292 77.6422C126.039 77.5861 125.879 77.3345 125.935 77.0812C126.271 75.5597 126.648 74.0263 127.058 72.5235C127.126 72.2736 127.384 72.1257 127.634 72.1937C127.883 72.2617 128.031 72.5201 127.963 72.77C127.559 74.2592 127.183 75.7773 126.851 77.2835C126.801 77.5028 126.608 77.6524 126.392 77.6524L126.394 77.6541ZM316.782 74.742C316.571 74.742 316.381 74.6009 316.327 74.3867C315.95 72.8941 315.532 71.3913 315.084 69.9191C315.009 69.6709 315.148 69.4091 315.396 69.3326C315.644 69.2578 315.906 69.3972 315.982 69.6454C316.434 71.1312 316.857 72.6493 317.237 74.1572C317.3 74.4088 317.149 74.6638 316.898 74.7284C316.858 74.7386 316.819 74.742 316.782 74.742ZM129.436 66.8778C129.385 66.8778 129.334 66.8693 129.283 66.8523C129.038 66.7673 128.907 66.5005 128.992 66.254C129.5 64.7835 130.052 63.3045 130.63 61.8595C130.726 61.6181 131 61.5008 131.239 61.5977C131.48 61.6946 131.598 61.9683 131.501 62.208C130.928 63.6394 130.382 65.1048 129.879 66.5617C129.811 66.7554 129.629 66.8778 129.436 66.8778ZM313.428 64.0797C313.237 64.0797 313.059 63.9641 312.989 63.7771C312.444 62.3372 311.857 60.8922 311.242 59.4812C311.138 59.2432 311.247 58.9661 311.485 58.8624C311.722 58.7587 311.999 58.8675 312.103 59.1055C312.723 60.5301 313.316 61.9887 313.868 63.4422C313.959 63.6853 313.837 63.9556 313.596 64.0474C313.541 64.0678 313.485 64.078 313.429 64.078L313.428 64.0797ZM133.694 56.5266C133.626 56.5266 133.556 56.5113 133.491 56.4807C133.257 56.3685 133.159 56.088 133.272 55.8534C133.945 54.4509 134.662 53.0467 135.4 51.6782C135.524 51.4504 135.808 51.3654 136.037 51.4878C136.265 51.6119 136.35 51.8958 136.228 52.1253C135.496 53.4819 134.786 54.8725 134.12 56.2614C134.038 56.4297 133.872 56.5283 133.697 56.5283L133.694 56.5266ZM308.876 53.8797C308.706 53.8797 308.541 53.7879 308.458 53.6264C307.753 52.263 307.004 50.8962 306.235 49.5668C306.104 49.3424 306.18 49.0551 306.406 48.9242C306.631 48.7933 306.918 48.8698 307.048 49.0942C307.826 50.4372 308.582 51.8159 309.294 53.1929C309.413 53.4241 309.323 53.7063 309.093 53.827C309.024 53.8627 308.951 53.8797 308.878 53.8797H308.876ZM139.101 46.7346C139.016 46.7346 138.93 46.7108 138.852 46.6615C138.633 46.5238 138.566 46.2331 138.704 46.0138C139.531 44.698 140.402 43.3856 141.292 42.1089C141.44 41.8964 141.734 41.8437 141.946 41.9933C142.158 42.1412 142.211 42.4353 142.062 42.6478C141.18 43.9109 140.317 45.2131 139.499 46.5153C139.409 46.6564 139.258 46.7346 139.101 46.7346ZM303.19 44.273C303.038 44.273 302.891 44.1999 302.799 44.0656C301.941 42.7889 301.041 41.5173 300.126 40.2831C299.971 40.0757 300.013 39.7799 300.222 39.6252C300.43 39.4705 300.725 39.513 300.88 39.7221C301.805 40.9665 302.714 42.2517 303.58 43.5403C303.725 43.7562 303.668 44.0469 303.453 44.1931C303.373 44.2475 303.281 44.273 303.191 44.273H303.19ZM145.584 37.6243C145.481 37.6243 145.377 37.5903 145.29 37.5206C145.088 37.3591 145.056 37.0633 145.217 36.8593C146.189 35.6472 147.203 34.4402 148.229 33.2757C148.4 33.0819 148.697 33.0632 148.891 33.2349C149.085 33.4066 149.103 33.7041 148.932 33.8979C147.914 35.0522 146.911 36.2456 145.948 37.4475C145.854 37.5631 145.718 37.6243 145.581 37.6243H145.584ZM296.442 35.3718C296.309 35.3718 296.177 35.3157 296.085 35.2069C295.088 34.0356 294.049 32.8745 292.997 31.7525C292.821 31.5638 292.829 31.2663 293.018 31.0878C293.206 30.911 293.503 30.9195 293.682 31.1082C294.743 32.2404 295.793 33.4151 296.798 34.5966C296.966 34.7938 296.943 35.0913 296.746 35.2596C296.657 35.3344 296.549 35.3718 296.442 35.3718ZM153.054 29.313C152.933 29.313 152.813 29.2671 152.721 29.1736C152.538 28.99 152.539 28.6925 152.724 28.5089C153.827 27.4141 154.97 26.3312 156.121 25.2908C156.313 25.1174 156.61 25.1327 156.784 25.3248C156.957 25.5169 156.942 25.8144 156.75 25.9878C155.608 27.018 154.477 28.0907 153.385 29.1753C153.293 29.2654 153.174 29.3113 153.054 29.3113V29.313ZM288.724 27.2934C288.609 27.2934 288.495 27.2509 288.403 27.1676C287.279 26.117 286.115 25.08 284.942 24.0838C284.745 23.9155 284.719 23.6197 284.887 23.4208C285.055 23.2236 285.351 23.1981 285.55 23.3664C286.733 24.3728 287.909 25.42 289.043 26.4808C289.234 26.6576 289.244 26.9551 289.065 27.1455C288.974 27.2441 288.848 27.2951 288.722 27.2951L288.724 27.2934ZM161.413 21.9045C161.274 21.9045 161.137 21.8433 161.045 21.726C160.884 21.522 160.919 21.2262 161.123 21.0664C162.341 20.1042 163.599 19.159 164.861 18.258C165.072 18.1067 165.366 18.156 165.517 18.3668C165.668 18.5776 165.619 18.8717 165.408 19.023C164.158 19.9172 162.913 20.8522 161.706 21.8059C161.619 21.8739 161.517 21.9062 161.415 21.9062L161.413 21.9045ZM280.14 20.1382C280.043 20.1382 279.945 20.1076 279.862 20.0464C278.625 19.1301 277.351 18.2308 276.072 17.374C275.857 17.2295 275.799 16.9371 275.943 16.7229C276.088 16.507 276.38 16.4492 276.594 16.5937C277.885 17.459 279.172 18.3668 280.42 19.2916C280.629 19.4463 280.672 19.7404 280.519 19.9495C280.427 20.0736 280.285 20.1399 280.142 20.1399L280.14 20.1382ZM170.558 15.4972C170.4 15.4972 170.247 15.4173 170.159 15.2745C170.023 15.0535 170.091 14.7645 170.312 14.6285C171.631 13.8125 172.987 13.0169 174.342 12.2655C174.569 12.1397 174.855 12.2213 174.981 12.4491C175.106 12.6769 175.025 12.9625 174.797 13.0883C173.455 13.8329 172.112 14.62 170.806 15.4275C170.729 15.4751 170.644 15.4972 170.56 15.4972H170.558ZM270.797 14.0029C270.717 14.0029 270.638 13.9825 270.563 13.94C269.23 13.1699 267.861 12.4202 266.492 11.7147C266.261 11.5957 266.171 11.3118 266.29 11.0823C266.408 10.8511 266.692 10.761 266.921 10.88C268.302 11.5923 269.685 12.3488 271.032 13.1274C271.256 13.2566 271.332 13.5439 271.203 13.77C271.116 13.9213 270.959 14.0046 270.795 14.0046L270.797 14.0029ZM180.366 10.1813C180.19 10.1813 180.021 10.081 179.942 9.91098C179.831 9.67638 179.931 9.39588 180.168 9.28538C181.574 8.62408 183.014 7.98998 184.449 7.39668C184.689 7.29808 184.964 7.41198 185.062 7.65168C185.161 7.89138 185.047 8.16678 184.808 8.26538C183.386 8.85188 181.959 9.48088 180.567 10.1354C180.502 10.166 180.434 10.1796 180.368 10.1796L180.366 10.1813ZM260.812 8.96918C260.749 8.96918 260.686 8.95728 260.625 8.93008C259.212 8.31638 257.765 7.72818 256.325 7.18418C256.082 7.09238 255.96 6.82208 256.051 6.57899C256.143 6.33589 256.415 6.21349 256.656 6.30529C258.11 6.85608 259.571 7.44938 260.997 8.06818C261.235 8.17188 261.344 8.44898 261.242 8.68698C261.165 8.86378 260.992 8.96918 260.81 8.96918H260.812ZM190.732 6.01969C190.535 6.01969 190.353 5.89559 190.287 5.69839C190.203 5.45189 190.336 5.18669 190.582 5.10339C192.053 4.60869 193.558 4.14289 195.053 3.71959C195.302 3.64819 195.562 3.79439 195.632 4.04429C195.703 4.29419 195.557 4.55429 195.307 4.62399C193.826 5.04389 192.338 5.50459 190.881 5.99419C190.832 6.01119 190.781 6.01799 190.732 6.01799V6.01969ZM250.314 5.11019C250.268 5.11019 250.222 5.10339 250.178 5.08979C248.702 4.64269 247.198 4.22449 245.703 3.84879C245.452 3.78589 245.299 3.53089 245.362 3.27929C245.424 3.02769 245.681 2.87469 245.931 2.93759C247.439 3.31669 248.961 3.73829 250.45 4.19049C250.698 4.26529 250.839 4.52879 250.763 4.77699C250.701 4.97929 250.515 5.11019 250.314 5.11019ZM201.507 3.07529C201.289 3.07529 201.094 2.92399 201.048 2.70299C200.994 2.44969 201.157 2.1998 201.41 2.1454C202.926 1.8224 204.474 1.5334 206.007 1.2835C206.264 1.2427 206.505 1.4161 206.546 1.6711C206.588 1.9278 206.413 2.1692 206.159 2.21C204.64 2.45819 203.106 2.74549 201.605 3.06509C201.573 3.07189 201.539 3.07529 201.507 3.07529ZM239.448 2.48709C239.42 2.48709 239.392 2.48539 239.363 2.48029C237.849 2.20659 236.311 1.9652 234.785 1.7629C234.529 1.7289 234.347 1.4926 234.381 1.2359C234.415 0.979198 234.651 0.797298 234.908 0.831298C236.448 1.0353 238.002 1.2784 239.529 1.5555C239.784 1.6014 239.954 1.8462 239.908 2.1012C239.867 2.32899 239.668 2.48709 239.446 2.48709H239.448ZM212.545 1.3804C212.305 1.3804 212.101 1.1985 212.078 0.955398C212.052 0.696998 212.242 0.467499 212.5 0.441999C213.463 0.350199 214.443 0.270299 215.413 0.2057C215.996 0.1666 216.587 0.1326 217.168 0.1037C217.426 0.0917998 217.647 0.290699 217.66 0.550799C217.672 0.809198 217.473 1.0302 217.214 1.0438C216.638 1.0727 216.054 1.105 215.476 1.1441C214.516 1.2087 213.545 1.2869 212.59 1.3787C212.575 1.3787 212.56 1.3804 212.545 1.3804ZM228.36 1.1288C228.35 1.1288 228.34 1.1288 228.33 1.1288C226.798 1.0302 225.24 0.965598 223.7 0.940098C223.44 0.934998 223.234 0.722498 223.238 0.462399C223.243 0.2057 223.452 0 223.707 0C223.71 0 223.712 0 223.715 0C225.269 0.0271999 226.842 0.0900998 228.389 0.1904C228.647 0.2074 228.844 0.430099 228.827 0.690198C228.812 0.938398 228.605 1.1305 228.359 1.1305L228.36 1.1288Z" fill="#2670E0"/>
<path d="M39.9849 51.9425L59.7682 64.6398L97.621 3.29883L9.52539 32.3909L29.3528 45.117" fill="#7DA5E2"/>
<path d="M39.9854 51.9425L97.6215 3.29883L29.3533 45.117L30.4539 64.6398L39.9854 51.9425Z" fill="#2670E0"/>
<path d="M30.4529 64.6397L45.0356 55.1826L39.9844 51.9424L30.4529 64.6397Z" fill="#174284"/>
<path d="M255.201 87.4826L250.673 115.592L249.803 120.988C249.803 125.165 240.887 180.195 236.269 180.195L163.24 129.687L82.1891 185.974C77.5728 185.974 72.717 126.756 72.717 122.579L72.3943 115.592L71.1001 87.5642L84.1304 76.2949L158.031 12.3768C161.079 10.1804 165.402 10.1804 168.45 12.3768L242.279 76.2949L255.201 87.4826Z" fill="#174284"/>
<path d="M237.627 44.7937H88.6782V193.88H237.627V44.7937Z" fill="white"/>
<path d="M238.814 195.07H87.488V43.6035H238.814V195.07ZM89.8675 192.69H236.438V45.9835H89.8675V192.69Z" fill="#2670E0"/>
<path d="M163.251 161.038L71.1033 87.566V212.472H255.201V87.566L163.251 161.038Z" fill="#4A85DF"/>
<path d="M71.1033 87.566V212.472L149.43 150.019L71.1033 87.566Z" fill="#2670E0"/>
<path d="M255.201 87.566V212.472L176.875 150.019L255.201 87.566Z" fill="#2670E0"/>
<path d="M247.241 204.891C247.241 204.189 247.81 203.62 248.511 203.62V202.483C247.81 202.483 247.241 201.913 247.241 201.211C247.241 200.509 247.81 199.939 248.511 199.939V198.802C247.81 198.802 247.241 198.233 247.241 197.53C247.241 196.828 247.81 196.259 248.511 196.259V195.122C247.81 195.122 247.241 194.552 247.241 193.85C247.241 193.148 247.81 192.578 248.511 192.578V191.441C247.81 191.441 247.241 190.872 247.241 190.169C247.241 189.467 247.81 188.898 248.511 188.898V187.912H247.526C247.526 187.912 247.526 187.924 247.526 187.931C247.526 188.633 246.957 189.202 246.256 189.202C245.554 189.202 244.985 188.633 244.985 187.931C244.985 187.924 244.985 187.919 244.985 187.912H243.847C243.847 187.912 243.847 187.924 243.847 187.931C243.847 188.633 243.278 189.202 242.577 189.202C241.876 189.202 241.307 188.633 241.307 187.931C241.307 187.924 241.307 187.919 241.307 187.912H240.169C240.169 187.912 240.169 187.924 240.169 187.931C240.169 188.633 239.6 189.202 238.898 189.202C238.197 189.202 237.628 188.633 237.628 187.931C237.628 187.924 237.628 187.919 237.628 187.912H236.49C236.49 187.912 236.49 187.924 236.49 187.931C236.49 188.633 235.921 189.202 235.219 189.202C234.518 189.202 233.949 188.633 233.949 187.931C233.949 187.924 233.949 187.919 233.949 187.912H232.811C232.811 187.912 232.811 187.924 232.811 187.931C232.811 188.633 232.242 189.202 231.541 189.202C230.839 189.202 230.27 188.633 230.27 187.931C230.27 187.924 230.27 187.919 230.27 187.912H229.285V188.898C229.987 188.898 230.556 189.467 230.556 190.169C230.556 190.872 229.987 191.441 229.285 191.441V192.578C229.987 192.578 230.556 193.148 230.556 193.85C230.556 194.552 229.987 195.122 229.285 195.122V196.259C229.987 196.259 230.556 196.828 230.556 197.53C230.556 198.233 229.987 198.802 229.285 198.802V199.939C229.987 199.939 230.556 200.509 230.556 201.211C230.556 201.913 229.987 202.483 229.285 202.483V203.62C229.987 203.62 230.556 204.189 230.556 204.891C230.556 205.594 229.987 206.163 229.285 206.163V207.149H230.27C230.27 206.447 230.839 205.877 231.541 205.877C232.242 205.877 232.811 206.447 232.811 207.149H233.947C233.947 206.447 234.516 205.877 235.218 205.877C235.919 205.877 236.488 206.447 236.488 207.149H237.624C237.624 206.447 238.193 205.877 238.895 205.877C239.596 205.877 240.165 206.447 240.165 207.149H241.302C241.302 206.447 241.87 205.877 242.572 205.877C243.273 205.877 243.842 206.447 243.842 207.149H244.979C244.979 206.447 245.548 205.877 246.249 205.877C246.95 205.877 247.519 206.447 247.519 207.149H248.505V206.163C247.803 206.163 247.234 205.594 247.234 204.891H247.241Z" fill="white"/>
<path d="M218.385 204.891C218.385 204.189 218.954 203.62 219.655 203.62V202.483C218.954 202.483 218.385 201.913 218.385 201.211C218.385 200.509 218.954 199.939 219.655 199.939V198.802C218.954 198.802 218.385 198.233 218.385 197.53C218.385 196.828 218.954 196.259 219.655 196.259V195.122C218.954 195.122 218.385 194.552 218.385 193.85C218.385 193.148 218.954 192.578 219.655 192.578V191.441C218.954 191.441 218.385 190.872 218.385 190.169C218.385 189.467 218.954 188.898 219.655 188.898V187.912H218.67C218.67 187.912 218.67 187.924 218.67 187.931C218.67 188.633 218.101 189.202 217.4 189.202C216.698 189.202 216.129 188.633 216.129 187.931C216.129 187.924 216.129 187.919 216.129 187.912H214.991C214.991 187.912 214.991 187.924 214.991 187.931C214.991 188.633 214.423 189.202 213.721 189.202C213.02 189.202 212.451 188.633 212.451 187.931C212.451 187.924 212.451 187.919 212.451 187.912H211.313C211.313 187.912 211.313 187.924 211.313 187.931C211.313 188.633 210.744 189.202 210.042 189.202C209.341 189.202 208.772 188.633 208.772 187.931C208.772 187.924 208.772 187.919 208.772 187.912H207.634C207.634 187.912 207.634 187.924 207.634 187.931C207.634 188.633 207.065 189.202 206.364 189.202C205.662 189.202 205.093 188.633 205.093 187.931C205.093 187.924 205.093 187.919 205.093 187.912H203.955C203.955 187.912 203.955 187.924 203.955 187.931C203.955 188.633 203.386 189.202 202.685 189.202C201.983 189.202 201.414 188.633 201.414 187.931C201.414 187.924 201.414 187.919 201.414 187.912H200.429V188.898C201.131 188.898 201.7 189.467 201.7 190.169C201.7 190.872 201.131 191.441 200.429 191.441V192.578C201.131 192.578 201.7 193.148 201.7 193.85C201.7 194.552 201.131 195.122 200.429 195.122V196.259C201.131 196.259 201.7 196.828 201.7 197.53C201.7 198.233 201.131 198.802 200.429 198.802V199.939C201.131 199.939 201.7 200.509 201.7 201.211C201.7 201.913 201.131 202.483 200.429 202.483V203.62C201.131 203.62 201.7 204.189 201.7 204.891C201.7 205.594 201.131 206.163 200.429 206.163V207.149H201.414C201.414 206.447 201.983 205.877 202.685 205.877C203.386 205.877 203.955 206.447 203.955 207.149H205.091C205.091 206.447 205.66 205.877 206.362 205.877C207.063 205.877 207.632 206.447 207.632 207.149H208.768C208.768 206.447 209.337 205.877 210.039 205.877C210.74 205.877 211.309 206.447 211.309 207.149H212.446C212.446 206.447 213.015 205.877 213.716 205.877C214.417 205.877 214.986 206.447 214.986 207.149H216.123C216.123 206.447 216.692 205.877 217.393 205.877C218.095 205.877 218.663 206.447 218.663 207.149H219.649V206.163C218.947 206.163 218.378 205.594 218.378 204.891H218.385Z" fill="white"/>
<path d="M163.274 117.084C175.933 117.084 186.194 106.812 186.194 94.1423C186.194 81.472 175.933 71.2008 163.274 71.2008C150.616 71.2008 140.354 81.472 140.354 94.1423C140.354 106.812 150.616 117.084 163.274 117.084Z" fill="#2670E0"/>
<path d="M163.273 124.194C146.717 124.194 133.249 110.713 133.249 94.1416C133.249 77.5701 146.717 64.0891 163.273 64.0891C179.83 64.0891 193.298 77.5701 193.298 94.1416C193.298 110.713 179.83 124.194 163.273 124.194ZM163.273 67.4806C148.585 67.4806 136.635 79.4418 136.635 94.1433C136.635 108.845 148.585 120.806 163.273 120.806C177.961 120.806 189.911 108.845 189.911 94.1433C189.911 79.4418 177.961 67.4806 163.273 67.4806Z" fill="#262F5F"/>
<path d="M159.869 106.171L150.327 95.825L154.737 91.7501L159.563 96.9844L171.549 82.1145L176.22 85.8868L159.869 106.171Z" fill="white"/>
</svg>
