<svg width="17" height="20" viewBox="0 0 17 20" fill="none" xmlns="http://www.w3.org/2000/svg">
<path d="M0.00112084 10.3771C0.00112084 8.32513 0.00444493 6.27311 1.2807e-05 4.22108C-0.00220326 3.24642 0.283115 2.36682 0.902505 1.60404C1.71026 0.608724 2.76677 0.0616275 4.06871 0.014361C4.76898 -0.0111738 5.47092 0.00512497 6.17175 0.00512497C8.3302 0.00458167 10.4892 0.0116445 12.6476 0.0018652C13.6632 -0.00248115 14.5795 0.271339 15.3723 0.891237C16.3778 1.67738 16.923 2.70638 16.9911 3.97063C16.9967 4.07005 16.9972 4.16947 16.9972 4.26889C16.9972 8.0839 16.9939 11.8984 17 15.7134C17.0011 16.5484 16.821 17.3308 16.3573 18.0322C15.5313 19.2801 14.3551 19.9744 12.831 19.9858C9.65762 20.0092 6.48422 19.9983 3.31081 19.9907C1.70971 19.9869 0.294749 18.7803 0.0531983 17.2341C0.0182953 17.0118 0.00389092 16.7848 0.0033369 16.5604C1.28069e-05 14.4991 0.00112084 12.4379 0.00112084 10.3771ZM15.3274 13.3327V12.9453C15.3274 10.5407 15.3274 8.13606 15.3274 5.73144C15.3274 5.22509 15.3379 4.71874 15.3252 4.21293C15.2981 3.1421 14.8061 2.34944 13.815 1.87623C13.4903 1.72139 13.1452 1.63881 12.7418 1.67141C12.7418 1.79908 12.7418 1.91372 12.7418 2.02889C12.7418 4.14448 12.7418 6.25952 12.7413 8.37511C12.7413 8.49246 12.7452 8.61198 12.7258 8.72662C12.6604 9.11344 12.1729 9.28838 11.8681 9.03467C11.7917 8.9711 11.7296 8.89015 11.6676 8.81137C11.369 8.43215 11.0726 8.05131 10.7773 7.66937C10.7341 7.61341 10.7025 7.5493 10.6548 7.47107C10.5524 7.59059 10.4981 7.65035 10.4482 7.71338C10.1729 8.06434 9.89917 8.41694 9.62438 8.76791C9.57396 8.83256 9.52355 8.89721 9.46815 8.95752C9.30471 9.13626 9.10914 9.20255 8.87092 9.1167C8.64488 9.03521 8.5302 8.87548 8.51856 8.61959C8.51468 8.53864 8.5169 8.45715 8.5169 8.37565C8.5169 6.25137 8.5169 4.12655 8.51579 2.00227C8.51579 1.88927 8.50305 1.77626 8.49529 1.64207C7.34349 1.64587 6.22383 1.62849 5.10139 1.65239V13.3327H15.3269H15.3274ZM15.2853 14.9875H14.9413C11.1778 14.9875 7.41386 14.9875 3.65042 14.9892C3.46649 14.9892 3.2809 15 3.09918 15.0272C2.69308 15.087 2.34073 15.2586 2.0881 15.583C1.63713 16.1605 1.57508 16.7962 1.88256 17.4459C2.18117 18.0778 2.73408 18.3451 3.4266 18.3505C4.10915 18.356 4.7917 18.3516 5.47424 18.3516C7.89086 18.3516 10.308 18.3511 12.7247 18.3522C13.1967 18.3522 13.6421 18.25 14.0438 18.0082C15.1463 17.3454 15.4576 16.3197 15.2848 14.987L15.2853 14.9875ZM3.3856 1.7893C3.18062 1.89198 3.01829 1.95501 2.87536 2.04791C2.09752 2.55426 1.68533 3.26217 1.68533 4.18523C1.68422 7.29341 1.68478 10.4016 1.68533 13.5098C1.68533 13.5896 1.69364 13.669 1.70029 13.7901C2.24433 13.5206 2.79059 13.3528 3.3856 13.3397V1.7893Z" fill="#1D2345"/>
</svg>
